<svg width="1900" height="860" xmlns="http://www.w3.org/2000/svg">
 <!-- Created with Method Draw - http://github.com/duopixel/Method-Draw/ -->
 <g>
  <title>background</title>
  <rect fill="#e1e8f0" id="canvas_background" height="862" width="1902" y="-1" x="-1"/>
  <g display="none" overflow="visible" y="0" x="0" height="100%" width="100%" id="canvasGrid">
   <rect fill="url(#gridpattern)" stroke-width="0" y="0" x="0" height="100%" width="100%"/>
  </g>
 </g>
 <g>
  <title>Layer 1</title>
  <ellipse ry="32" rx="31.999993" id="svg_2" cy="61.33333" cx="169.333333" stroke-width="0" stroke="#000" fill="#bfc5cc"/>
  <ellipse ry="36" rx="35.999991" id="svg_5" cy="96.666661" cx="300.000045" stroke-width="0" stroke="#000" fill="#bfc5cc"/>
  <ellipse ry="15" rx="15.333325" id="svg_14" cy="99.999983" cx="46.000008" stroke-width="0" stroke="#000" fill="#bfc5cc"/>
  <ellipse ry="22" rx="21.999995" id="svg_16" cy="239.333351" cx="164.666696" stroke-width="0" stroke="#000" fill="#bfc5cc"/>
  <ellipse ry="32" rx="31.999993" id="svg_18" cy="42.666662" cx="522.666688" stroke-width="0" stroke="#000" fill="#bfc5cc"/>
  <ellipse ry="36" rx="35.999991" id="svg_19" cy="77.999993" cx="666.666732" stroke-width="0" stroke="#000" fill="#bfc5cc"/>
  <ellipse ry="15" rx="15.333325" id="svg_21" cy="81.333315" cx="412.666695" stroke-width="0" stroke="#000" fill="#bfc5cc"/>
  <ellipse ry="22" rx="21.999995" id="svg_22" cy="48.666683" cx="524.666711" stroke-width="0" stroke="#000" fill="#bfc5cc"/>
  <ellipse ry="22" rx="21.999995" id="svg_23" cy="220.666683" cx="531.333383" stroke-width="0" stroke="#000" fill="#bfc5cc"/>
  <ellipse ry="20.666665" rx="20.666656" id="svg_24" cy="147.333323" cx="730.000046" stroke-width="0" stroke="#000" fill="#bfc5cc"/>
  <ellipse ry="32" rx="31.999993" id="svg_25" cy="611.999993" cx="162.666666" stroke-width="0" stroke="#000" fill="#bfc5cc"/>
  <ellipse ry="36" rx="35.999991" id="svg_26" cy="769.999993" cx="145.333378" stroke-width="0" stroke="#000" fill="#bfc5cc"/>
  <ellipse ry="15" rx="15.333325" id="svg_28" cy="643.999979" cx="39.333341" stroke-width="0" stroke="#000" fill="#bfc5cc"/>
  <ellipse ry="20.666665" rx="20.666656" id="svg_31" cy="652.666651" cx="539.333364" stroke-width="0" stroke="#000" fill="#bfc5cc"/>
  <ellipse ry="32" rx="31.999993" id="svg_32" cy="772.000002" cx="410.666681" stroke-width="0" stroke="#000" fill="#bfc5cc"/>
  <ellipse ry="36" rx="35.999991" id="svg_33" cy="765.999987" cx="622.666731" stroke-width="0" stroke="#000" fill="#bfc5cc"/>
  <ellipse ry="15" rx="15.333325" id="svg_35" cy="598.666643" cx="387.333361" stroke-width="0" stroke="#000" fill="#bfc5cc"/>
  <ellipse ry="22" rx="21.999995" id="svg_36" cy="686.000018" cx="274.000038" stroke-width="0" stroke="#000" fill="#bfc5cc"/>
  <ellipse ry="36" rx="35.999991" id="svg_39" cy="81.999994" cx="826.666732" stroke-width="0" stroke="#000" fill="#bfc5cc"/>
  <ellipse ry="20.666665" rx="20.666656" id="svg_41" cy="151.333324" cx="890.000046" stroke-width="0" stroke="#000" fill="#bfc5cc"/>
  <ellipse ry="15" rx="15.333325" id="svg_45" cy="66.666648" cx="939.333382" stroke-width="0" stroke="#000" fill="#bfc5cc"/>
  <ellipse ry="22" rx="21.999995" id="svg_46" cy="34.000016" cx="1051.333398" stroke-width="0" stroke="#000" fill="#bfc5cc"/>
  <ellipse ry="22" rx="21.999995" id="svg_47" cy="206.000016" cx="1058.00007" stroke-width="0" stroke="#000" fill="#bfc5cc"/>
  <ellipse ry="22" rx="21.999995" id="svg_50" cy="802.000016" cx="768.666716" stroke-width="0" stroke="#000" fill="#bfc5cc"/>
  <ellipse ry="20.666665" rx="20.666656" id="svg_51" cy="804.666663" cx="972.666711" stroke-width="0" stroke="#000" fill="#bfc5cc"/>
  <ellipse ry="32" rx="31.999993" id="svg_52" cy="718.666667" cx="882.6667" stroke-width="0" stroke="#000" fill="#bfc5cc"/>
  <ellipse ry="36" rx="35.999991" id="svg_53" cy="615.333318" cx="670.666752" stroke-width="0" stroke="#000" fill="#bfc5cc"/>
  <ellipse ry="15" rx="15.333325" id="svg_55" cy="601.333312" cx="976.666716" stroke-width="0" stroke="#000" fill="#bfc5cc"/>
  <ellipse ry="22" rx="21.999995" id="svg_56" cy="588.666679" cx="807.333392" stroke-width="0" stroke="#000" fill="#bfc5cc"/>
  <ellipse ry="32" rx="31.999993" id="svg_59" cy="91.999996" cx="1178.666707" stroke-width="0" stroke="#000" fill="#bfc5cc"/>
  <ellipse ry="20.666665" rx="20.666656" id="svg_61" cy="143.333325" cx="1331.333397" stroke-width="0" stroke="#000" fill="#bfc5cc"/>
  <ellipse ry="22" rx="21.999995" id="svg_64" cy="230.000017" cx="1270.00007" stroke-width="0" stroke="#000" fill="#bfc5cc"/>
  <ellipse ry="20.666665" rx="20.666656" id="svg_65" cy="168.666657" cx="1490.000067" stroke-width="0" stroke="#000" fill="#bfc5cc"/>
  <ellipse ry="32" rx="31.999993" id="svg_66" cy="40" cx="1626.666728" stroke-width="0" stroke="#000" fill="#bfc5cc"/>
  <ellipse ry="36" rx="35.999991" id="svg_67" cy="68.666659" cx="1772.000106" stroke-width="0" stroke="#000" fill="#bfc5cc"/>
  <ellipse ry="15" rx="15.333325" id="svg_69" cy="71.999981" cx="1518.000069" stroke-width="0" stroke="#000" fill="#bfc5cc"/>
  <ellipse ry="22" rx="21.999995" id="svg_70" cy="39.333349" cx="1630.000085" stroke-width="0" stroke="#000" fill="#bfc5cc"/>
  <ellipse ry="22" rx="21.999995" id="svg_71" cy="211.333349" cx="1636.666757" stroke-width="0" stroke="#000" fill="#bfc5cc"/>
  <ellipse ry="20.666665" rx="20.666656" id="svg_72" cy="137.999989" cx="1835.33342" stroke-width="0" stroke="#000" fill="#bfc5cc"/>
  <ellipse ry="32" rx="31.999993" id="svg_73" cy="595.999992" cx="1268.00004" stroke-width="0" stroke="#000" fill="#bfc5cc"/>
  <ellipse ry="20.666665" rx="20.666656" id="svg_75" cy="687.333321" cx="1324.66673" stroke-width="0" stroke="#000" fill="#bfc5cc"/>
  <ellipse ry="15" rx="15.333325" id="svg_76" cy="634.666645" cx="1144.666715" stroke-width="0" stroke="#000" fill="#bfc5cc"/>
  <ellipse ry="22" rx="21.999995" id="svg_77" cy="724.666681" cx="1167.3334" stroke-width="0" stroke="#000" fill="#bfc5cc"/>
  <ellipse ry="22" rx="21.999995" id="svg_78" cy="807.333349" cx="1347.333403" stroke-width="0" stroke="#000" fill="#bfc5cc"/>
  <ellipse ry="20.666665" rx="20.666656" id="svg_79" cy="557.999981" cx="1739.33341" stroke-width="0" stroke="#000" fill="#bfc5cc"/>
  <ellipse ry="32" rx="31.999993" id="svg_80" cy="762.666668" cx="1516.000055" stroke-width="0" stroke="#000" fill="#bfc5cc"/>
  <ellipse ry="36" rx="35.999991" id="svg_81" cy="685.999985" cx="1717.333439" stroke-width="0" stroke="#000" fill="#bfc5cc"/>
  <ellipse ry="15" rx="15.333325" id="svg_83" cy="623.999977" cx="1528.666735" stroke-width="0" stroke="#000" fill="#bfc5cc"/>
  <ellipse ry="22" rx="21.999995" id="svg_85" cy="755.333345" cx="1630.00009" stroke-width="0" stroke="#000" fill="#bfc5cc"/>
  <ellipse ry="20.666665" rx="20.666656" id="svg_86" cy="681.999985" cx="1828.666753" stroke-width="0" stroke="#000" fill="#bfc5cc"/>
  <ellipse ry="36" rx="35.999991" id="svg_87" cy="765.999984" cx="1796.000126" stroke-width="0" stroke="#000" fill="#bfc5cc"/>
 </g>
</svg>