<?xml version="1.0" encoding="UTF-8" standalone="no"?>
<svg
   xmlns:dc="http://purl.org/dc/elements/1.1/"
   xmlns:cc="http://creativecommons.org/ns#"
   xmlns:rdf="http://www.w3.org/1999/02/22-rdf-syntax-ns#"
   xmlns:svg="http://www.w3.org/2000/svg"
   xmlns="http://www.w3.org/2000/svg"
   viewBox="0 0 800.52 150.70667"
   height="150.70667"
   width="800.52"
   xml:space="preserve"
   id="svg2"
   version="1.1"><metadata
     id="metadata8"><rdf:RDF><cc:Work
         rdf:about=""><dc:format>image/svg+xml</dc:format><dc:type
           rdf:resource="http://purl.org/dc/dcmitype/StillImage" /></cc:Work></rdf:RDF></metadata><defs
     id="defs6"><clipPath
       id="clipPath18"
       clipPathUnits="userSpaceOnUse"><path
         id="path16"
         d="M 0,595.28 H 841.89 V 0 H 0 Z" /></clipPath></defs><g
     transform="matrix(1.3333333,0,0,-1.3333333,0,793.70667)"
     id="g10"><g
       id="g12"><g
         clip-path="url(#clipPath18)"
         id="g14"><g
           transform="translate(75.1669,490.5687)"
           id="g20"><path
             id="path22"
             style="fill:#ffffff;fill-opacity:1;fill-rule:nonzero;stroke:none"
             d="m 0,0 h 47.208 l 2.636,18.132 H 45.85 C 39.939,7.109 38.421,3.994 30.913,3.994 h -1.757 c -4.154,0 -6.151,1.039 -6.151,5.352 V 26.52 h 6.63 c 3.754,0 4.633,-1.838 5.272,-7.429 h 3.754 v 19.65 h -3.754 c -0.639,-5.592 -1.518,-7.429 -5.272,-7.429 h -6.63 v 20.769 h 6.869 c 7.669,0 9.666,-2.876 13.979,-11.902 h 3.355 L 46.809,56.075 H 0 V 52.48 C 5.192,51.921 5.512,51.202 5.512,47.128 V 8.946 C 5.512,4.872 5.192,4.154 0,3.595 Z M 73.567,22.606 86.907,0 h 16.934 v 2.317 l -16.694,26.679 8.467,8.148 c 2.156,2.156 4.073,2.556 6.709,2.875 v 3.355 H 83.711 v -3.355 c 3.675,-0.399 4.713,-0.958 4.713,-2.396 0,-1.039 -0.479,-2.077 -2.715,-4.074 z M 56.633,6.23 c 0,-2.396 -1.279,-2.635 -4.234,-2.875 V 0 H 77.321 V 3.355 C 74.366,3.595 73.088,3.834 73.088,6.23 V 62.545 H 70.292 L 52.399,58.95 v -2.716 l 4.234,-2.157 z m 69.653,37.942 H 123.41 L 105.597,39.38 v -2.476 l 4.234,-2.716 V 6.23 c 0,-2.396 -1.278,-2.635 -4.234,-2.875 V 0 h 24.922 v 3.355 c -2.956,0.24 -4.233,0.479 -4.233,2.875 z m -7.988,2.956 c 5.272,0 8.467,3.675 8.467,7.909 0,4.233 -3.195,7.907 -8.467,7.907 -5.352,0 -8.467,-3.674 -8.467,-7.907 0,-4.234 3.115,-7.909 8.467,-7.909 M 190.188,6.23 c 0,-2.396 -0.719,-2.635 -3.675,-2.875 V 0 h 24.364 v 3.355 c -2.956,0.24 -4.234,0.479 -4.234,2.875 v 25.402 c 0,8.308 -4.394,12.54 -11.822,12.54 -7.029,0 -11.982,-4.073 -14.698,-8.386 -1.039,5.99 -5.112,8.386 -11.343,8.386 -7.269,0 -11.742,-3.834 -14.537,-8.227 l 0.319,8.227 h -3.195 L 133.554,39.38 v -2.476 l 4.234,-2.716 V 6.23 c 0,-2.396 -1.279,-2.635 -4.234,-2.875 V 0 h 24.363 v 3.355 c -2.956,0.24 -3.674,0.479 -3.674,2.875 v 27.319 c 1.757,0.639 3.354,1.118 5.431,1.118 3.355,0 4.313,-1.837 4.313,-4.793 V 6.23 c 0,-2.396 -0.718,-2.635 -3.674,-2.875 V 0 h 23.804 v 3.355 c -2.955,0.24 -3.675,0.479 -3.675,2.875 v 27.239 c 1.758,0.639 3.355,1.198 5.432,1.198 3.355,0 4.314,-1.837 4.314,-4.793 z m 45.05,37.942 c -11.822,0 -22.127,-8.945 -22.127,-23.404 0,-13.979 9.507,-21.567 21.408,-21.567 10.464,0 16.774,5.991 19.011,15.257 l -1.677,1.039 c -3.036,-3.914 -6.87,-5.592 -11.902,-5.592 -7.03,0 -11.982,5.592 -11.982,14.378 h 25.321 v 1.997 c 0,10.464 -6.07,17.892 -18.052,17.892 M 234.2,40.658 c 3.834,0 5.112,-4.553 5.112,-12.461 h -11.263 c 0.32,7.509 2.157,12.461 6.151,12.461 m 42.333,13.819 h -3.514 C 268.545,48.885 262.315,44.172 255.525,41.776 v -2.955 h 4.314 v -26.2 c 0,-9.586 5.351,-13.42 13.02,-13.42 6.71,0 11.423,2.876 14.617,8.228 l -1.277,1.997 c -1.838,-1.279 -3.675,-1.997 -5.592,-1.997 -2.716,0 -4.074,1.517 -4.074,4.952 v 26.44 h 8.867 v 4.553 h -8.867 z m 33.389,-26.12 c 3.435,2.076 8.148,2.237 13.26,2.237 h 2.077 v 12.221 c -0.879,0.798 -2.237,1.357 -4.234,1.357 -5.112,0 -8.067,-2.875 -11.103,-12.46 l 0.32,12.46 h -3.195 L 289.234,39.38 v -2.476 l 4.233,-2.716 V 6.23 c 0,-2.396 -1.278,-2.635 -4.233,-2.875 V 0 h 26.919 v 3.355 c -4.474,0.639 -6.231,0.879 -6.231,4.393 z m 38.182,15.815 h -2.876 L 327.415,39.38 v -2.476 l 4.234,-2.716 V 6.23 c 0,-2.396 -1.278,-2.635 -4.234,-2.875 V 0 h 24.922 v 3.355 c -2.955,0.24 -4.233,0.479 -4.233,2.875 z m -7.988,2.956 c 5.272,0 8.467,3.675 8.467,7.909 0,4.233 -3.195,7.907 -8.467,7.907 -5.352,0 -8.467,-3.674 -8.467,-7.907 0,-4.234 3.115,-7.909 8.467,-7.909 M 369.431,26.36 c 0,7.988 2.556,13.978 7.029,13.978 3.514,0 4.793,-3.115 4.793,-7.907 0,-1.358 -0.08,-2.876 -0.32,-4.793 h 8.228 c 1.837,0.799 3.754,2.795 3.754,6.07 0,7.429 -7.029,10.464 -15.177,10.464 -13.579,0 -22.526,-10.144 -22.526,-23.803 0,-13.26 8.867,-21.168 20.21,-21.168 9.265,0 16.055,4.394 18.691,14.698 l -1.917,1.198 c -2.476,-3.514 -5.831,-4.953 -10.384,-4.953 -7.908,0 -12.381,6.151 -12.381,16.216 m 43.933,-27.159 c 11.183,0 18.452,5.432 18.452,15.097 0,9.186 -5.352,12.461 -15.337,15.737 -4.873,1.597 -7.189,2.795 -7.189,5.99 0,2.876 2.237,4.553 5.432,4.553 5.511,0 9.106,-4.633 9.905,-9.665 h 3.754 v 9.586 c -3.435,2.236 -8.547,3.673 -14.059,3.673 -9.984,0 -17.173,-5.111 -17.173,-14.617 0,-8.387 5.032,-12.381 14.298,-15.097 5.112,-1.518 8.227,-2.716 8.227,-6.63 0,-3.355 -2.876,-5.032 -6.47,-5.032 -6.15,0 -10.464,4.872 -11.902,11.263 h -4.073 l 0.479,-10.784 c 3.594,-2.476 8.706,-4.074 15.656,-4.074 m 22.447,8.867 c 0,-5.272 3.913,-8.867 8.866,-8.867 4.952,0 8.866,3.595 8.866,8.867 0,5.272 -3.914,8.946 -8.866,8.946 -4.953,0 -8.866,-3.674 -8.866,-8.946" /></g></g></g><g
       transform="translate(138.3494,453.5268)"
       id="g24"></g></g></svg>
