<svg width="295.8" height="258.4" xmlns="http://www.w3.org/2000/svg">

 <g>
  <title>background</title>
  <rect fill="none" id="canvas_background" height="402" width="582" y="-1" x="-1"/>
 </g>
 <g>
  <title>Layer 1</title>
  <g id="Layer_1"/>
  <g id="Earth_Globe"/>
  <g id="Language_HTML"/>
  <g id="Php_Programmation_File_Black_Interface_Symbol">
   <g id="svg_1">
    <path id="svg_2" d="m175.3,86.1l-63.7,67.1c-11.2,-5.2 -24.8,-3.2 -34,6c-6.8,6.8 -8.6,14.9 -7.6,23.8l17.8,-11.9l18,2.5l3.3,18.2l-12.7,17.6c8.8,1 17,-0.8 23.8,-7.6c9.3,-9.3 11.2,-23.1 5.9,-34.3l67.3,-63.4c10.7,-10.8 -8,-28.2 -18.1,-18z" fill="#414042"/>
    <path id="svg_3" d="m122.7,163.4l-6.8,-6.8l63.4,-67c3.1,-3.1 7.5,-0.3 9.4,1.6c1.5,1.5 2.4,3.2 2.6,4.9c0.2,1.5 -0.3,2.9 -1.5,4.2l-67.1,63.1z" fill="#58595B"/>
    <path id="svg_4" d="m104.8,173.4l1,0.1l3.3,18.2l-12.7,17.6c8.8,1 17,-0.8 23.8,-7.6c9.3,-9.3 11.2,-23.1 5.9,-34.3l67.3,-63.4c5.6,-5.6 3.2,-13 -1.8,-17.4l-86.8,86.8z" fill="#BCBEC0"/>
    <polygon id="svg_5" points="186.3,173.9 184.4,175.8 129.9,121.3 125.3,125.8 179.8,180.3 177.8,182.3 180.6,188.7     192.9,192.9 197.3,188.6 191.7,176.2   " fill="#FFFFFF"/>
    <polygon id="svg_6" points="191.7,176.2 186.3,173.9 184.4,175.8 129.9,121.3 127.6,123.6 194.9,190.9 197.3,188.6   " opacity="0.2"/>
    <path id="svg_7" d="m139.5,116.1c0.5,0.5 3,3 -0.3,6.3l-12.7,12.7c-3.4,3.2 -5.8,0.9 -6.3,0.4l-11.3,-11.3c-0.5,-0.5 -1.2,-2.4 -0.5,-3.1l16.7,-16.7c0.7,-0.7 2.6,0 3.1,0.5l11.3,11.2z" fill="#F64400"/>
    <path id="svg_8" d="m125.8,101c0.7,0.7 0.7,1.9 0,2.7l-18,18c-0.7,0.7 -1.9,0.7 -2.7,0l-39,-39c-2,-2 -0.8,-9.2 5.1,-15.1c5.9,-5.9 13.6,-7.4 15.5,-5.5l39.1,38.9z" fill="#F64400"/>
    <path id="svg_9" d="m111,112.5c0.9,0.9 0.9,2.3 0,3.2l0,0c-0.9,0.9 -2.3,0.9 -3.2,0l-37,-36.9c-0.9,-0.9 -0.9,-2.3 0,-3.2l0,0c0.9,-0.9 2.3,-0.9 3.2,0l37,36.9z" fill="#FA8F66"/>
    <path id="svg_10" d="m120,103.5c0.9,0.9 0.9,2.3 0,3.2l0,0c-0.9,0.9 -2.3,0.9 -3.2,0l-37,-36.9c-0.9,-0.9 -0.9,-2.3 0,-3.2l0,0c0.9,-0.9 2.3,-0.9 3.2,0l37,36.9z" fill="#B93300"/>
    <path id="svg_11" d="m123.7,236c-2.5,-0.1 -5,-0.3 -7.5,-0.5l0.3,-2.5c2.4,0.3 4.9,0.4 7.3,0.5l-0.1,2.5zm7.5,0l-0.1,-2.5c2.4,-0.1 4.9,-0.3 7.3,-0.5l0.3,2.5c-2.5,0.2 -5,0.4 -7.5,0.5zm-22.4,-1.6c-2.4,-0.4 -4.9,-1 -7.3,-1.6l0.6,-2.4c2.4,0.6 4.8,1.1 7.1,1.6l-0.4,2.4zm37.2,0l-0.4,-2.4c2.4,-0.4 4.8,-1 7.1,-1.6l0.6,2.4c-2.4,0.6 -4.8,1.1 -7.3,1.6zm-51.7,-3.7c-2.4,-0.8 -4.7,-1.7 -7,-2.7l1,-2.3c2.2,0.9 4.5,1.8 6.8,2.6l-0.8,2.4zm66.2,-0.1l-0.8,-2.3c2.3,-0.8 4.6,-1.7 6.8,-2.6l1,2.3c-2.3,0.9 -4.6,1.8 -7,2.6zm-80,-5.8c-2.2,-1.1 -4.4,-2.4 -6.5,-3.7l1.3,-2.1c2.1,1.3 4.2,2.5 6.4,3.6l-1.2,2.2zm93.8,-0.1l-1.1,-2.2c2.2,-1.1 4.3,-2.3 6.4,-3.6l1.3,2.1c-2.2,1.3 -4.4,2.6 -6.6,3.7zm-106.6,-7.7c-2,-1.4 -4,-3 -5.9,-4.6l1.6,-1.9c1.9,1.6 3.8,3.1 5.8,4.5l-1.5,2zm119.3,-0.1l-1.4,-2c2,-1.4 3.9,-2.9 5.8,-4.5l1.6,1.9c-2,1.6 -3.9,3.2 -6,4.6zm-130.8,-9.5c-1.8,-1.7 -3.5,-3.5 -5.2,-5.4l1.8,-1.6c1.6,1.8 3.3,3.6 5.1,5.3l-1.7,1.7zm142.3,-0.1l-1.7,-1.8c1.8,-1.7 3.5,-3.5 5.1,-5.3l1.8,1.6c-1.6,2 -3.4,3.8 -5.2,5.5zm-152.3,-11c-1.5,-2 -3,-4 -4.4,-6.1l2.1,-1.4c1.3,2 2.8,4 4.3,5.9l-2,1.6zm162.3,-0.1l-2,-1.5c1.5,-1.9 2.9,-3.9 4.3,-5.9l2.1,1.4c-1.4,2 -2.8,4 -4.4,6zm-170.6,-12.4c-1.2,-2.2 -2.4,-4.4 -3.4,-6.6l2.2,-1.1c1,2.2 2.2,4.4 3.4,6.5l-2.2,1.2zm178.9,-0.1l-2.2,-1.2c1.2,-2.1 2.3,-4.3 3.3,-6.5l2.2,1.1c-0.9,2.2 -2.1,4.4 -3.3,6.6zm-185.3,-13.4c-0.9,-2.3 -1.7,-4.7 -2.4,-7.1l2.4,-0.7c0.7,2.3 1.5,4.7 2.4,6.9l-2.4,0.9zm191.7,-0.2l-2.3,-0.9c0.9,-2.3 1.7,-4.6 2.4,-6.9l2.4,0.7c-0.8,2.4 -1.6,4.8 -2.5,7.1zm-196,-14.1c-0.5,-2.4 -1,-4.9 -1.4,-7.4l2.4,-0.4c0.4,2.4 0.8,4.8 1.3,7.2l-2.3,0.6zm200.3,-0.2l-2.4,-0.5c0.5,-2.4 1,-4.8 1.3,-7.2l2.4,0.4c-0.3,2.4 -0.8,4.8 -1.3,7.3zm-202.5,-14.7c-0.2,-2.5 -0.3,-5 -0.3,-7.5l2.5,0c0,2.4 0.1,4.9 0.3,7.3l-2.5,0.2zm204.6,-0.2l-2.5,-0.2c0.2,-2.4 0.3,-4.9 0.3,-7.3l0,-0.4l2.5,0l0,0.4c0,2.5 -0.1,5.1 -0.3,7.5zm-202.2,-14.5l-2.5,-0.2c0.2,-2.5 0.4,-5 0.8,-7.4l2.4,0.4c-0.2,2.3 -0.5,4.7 -0.7,7.2zm199.8,-0.7c-0.2,-2.4 -0.5,-4.9 -0.8,-7.3l2.4,-0.4c0.4,2.5 0.7,5 0.8,7.4l-2.4,0.3zm-197.7,-13.8l-2.4,-0.5c0.5,-2.4 1.2,-4.9 1.9,-7.3l2.4,0.7c-0.8,2.3 -1.4,4.7 -1.9,7.1zm195.5,-0.6c-0.5,-2.4 -1.2,-4.7 -1.9,-7.1l2.4,-0.7c0.7,2.4 1.4,4.8 1.9,7.2l-2.4,0.6zm-191.3,-13.4l-2.3,-0.9c0.9,-2.3 1.9,-4.6 2.9,-6.9l2.2,1c-1,2.3 -2,4.5 -2.8,6.8zm187,-0.6c-0.9,-2.3 -1.8,-4.5 -2.9,-6.7l2.2,-1.1c1.1,2.3 2.1,4.6 3,6.9l-2.3,0.9zm-180.8,-12.7l-2.2,-1.2c1.2,-2.2 2.5,-4.3 3.9,-6.4l2.1,1.4c-1.4,2 -2.7,4.1 -3.8,6.2zm174.6,-0.5c-1.2,-2.1 -2.5,-4.2 -3.8,-6.2l2.1,-1.4c1.4,2.1 2.7,4.2 3.9,6.4l-2.2,1.2zm-8.1,-12.1c-1.5,-1.9 -3.1,-3.8 -4.7,-5.6l1.8,-1.7c1.7,1.8 3.3,3.8 4.8,5.7l-1.9,1.6zm-9.8,-10.9c-1.8,-1.7 -3.6,-3.3 -5.5,-4.9l1.6,-1.9c1.9,1.6 3.8,3.3 5.6,5l-1.7,1.8zm-11.3,-9.3c-2,-1.4 -4,-2.8 -6.1,-4l1.3,-2.1c2.1,1.3 4.2,2.7 6.3,4.1l-1.5,2zm-104,-7.3l-1.1,-2.2c2.2,-1.1 4.5,-2.2 6.8,-3.2l1,2.3c-2.4,0.9 -4.6,2 -6.7,3.1zm91.5,-0.3c-1,-0.5 -1.5,-1 -2.7,-1.5l1,-2.3c1,0.4 1.7,0.7 2.8,1.6l-1.1,2.2zm-78.1,-5.5l-0.8,-2.3c2.4,-0.8 4.8,-1.5 7.2,-2.2l0.6,2.4c-2.4,0.6 -4.7,1.4 -7,2.1zm64.6,-0.2c-2.3,-0.8 -4.7,-1.5 -7,-2.1l0.6,-2.4c2.4,0.6 4.8,1.3 7.2,2.1l-0.8,2.4zm-50.5,-3.5l-0.5,-2.4c2.4,-0.5 4.9,-0.8 7.4,-1.1l0.3,2.5c-2.4,0.2 -4.8,0.6 -7.2,1zm36.4,-0.1c-2.4,-0.4 -4.8,-0.8 -7.2,-1l0.3,-2.5c2.5,0.3 5,0.6 7.4,1.1l-0.5,2.4zm-21.9,-1.5l-0.1,-2.5c2.5,-0.1 5,-0.1 7.5,0l-0.1,2.5c-2.4,-0.1 -4.8,-0.1 -7.3,0z" fill="#18CACD"/>
    <path id="svg_12" d="m251.5,185.4l-5.6,1.5l-4.1,-4.1l1.4,-5.6l0.1,0c-1.9,-1.2 -3.9,-2.2 -6,-3l0,0.1l-3.6,4.5l-5.7,-0.9l-2.1,-5.4l0.1,-0.1c-2.2,0.1 -4.4,0.5 -6.6,1.1l0.1,0.1l-0.3,5.8l-5.1,2.7l-4.9,-3.1l0,-0.1c-0.9,0.7 -1.8,1.5 -2.6,2.4c-0.8,0.8 -1.4,1.6 -2.1,2.4l0.1,0l3.2,4.8l-2.6,5.2l-5.8,0.4l-0.1,-0.1c-0.6,2.2 -0.9,4.4 -1,6.6l0.1,-0.1l5.4,2l1,5.7l-4.4,3.7l-0.1,0c0.8,2.1 1.8,4.1 3.1,5.9l0,-0.1l5.6,-1.6l4.1,4l-1.4,5.6l-0.1,0c1.9,1.2 3.9,2.2 6,3l0,-0.1l3.6,-4.5l5.7,0.8l2.1,5.4l-0.1,0.1c2.2,-0.1 4.5,-0.5 6.6,-1.1l-0.1,-0.1l0.2,-5.8l5.1,-2.7l4.9,3.1l0,0.1c0.9,-0.7 1.7,-1.5 2.5,-2.3c0.8,-0.8 1.5,-1.6 2.2,-2.5l-0.1,0l-3.2,-4.8l2.6,-5.2l5.8,-0.4l0.1,0.1c0.6,-2.2 0.9,-4.4 1,-6.6l-0.1,0.1l-5.4,-2l-1,-5.7l4.4,-3.7l0.1,0c-0.8,-2 -1.8,-3.9 -3,-5.8l0,0.3zm-19.3,16.4c-0.2,2.6 -2.5,4.5 -5,4.3c-2.5,-0.2 -4.5,-2.5 -4.2,-5c0.2,-2.6 2.5,-4.5 5,-4.2c2.5,0.1 4.4,2.4 4.2,4.9z" opacity="0.2"/>
    <path id="svg_13" d="m250.7,218.1l0,0l-3.3,-4.8l2.6,-5.2l5.8,-0.4l0.1,0.1c0.6,-2.2 0.9,-4.4 1,-6.6l-0.1,0.1l-5.4,-2l-1,-5.7l4.4,-3.7l0.1,0c-0.8,-2 -1.8,-3.9 -3,-5.8l0,0.1l-5.6,1.5l-4.1,-4.1l1.4,-5.6l0.1,0c-1.9,-1.2 -3.9,-2.2 -6,-3l0,0.1l-3.6,4.5l-5.7,-0.9l-2.1,-5.4l0.1,-0.1c-2.2,0.1 -4.4,0.5 -6.6,1.1l0.1,0.1l-0.3,5.8l-5.1,2.7l-4.9,-3.1l0,-0.1c-0.9,0.7 -1.8,1.5 -2.6,2.3c-0.8,0.8 -1.4,1.6 -2.1,2.4l0.1,0l3.2,4.8l-2.6,5.2l-5.8,0.4l-0.1,-0.1c-0.6,2.2 -0.9,4.4 -1,6.6l0.1,-0.1l5.4,2l1,5.7l-4.4,3.7l-0.1,0c0.8,2.1 1.8,4.1 3.1,5.9l0,-0.1l5.6,-1.6l4.1,4l-1.4,5.6l-0.1,0c1.9,1.2 3.9,2.2 6,3l0,-0.1l3.6,-4.5l5.7,0.8l2.1,5.4l-0.1,0.1c2.2,-0.1 4.4,-0.5 6.6,-1.1l-0.1,-0.1l0.2,-5.8l5.1,-2.7l4.9,3.1l0,0.1c0.9,-0.7 1.7,-1.5 2.5,-2.3c0.8,-0.5 1.6,-1.3 2.2,-2.2zm-34.9,-5.4c-6.8,-6.6 -6.9,-17.4 -0.4,-24.2c6.6,-6.8 17.4,-6.9 24.2,-0.3c6.8,6.6 6.9,17.4 0.4,24.2c-6.5,6.8 -17.4,6.9 -24.2,0.3z" fill="#F64400"/>
    <path id="svg_14" d="m229.2,182.8c-9.7,-0.8 -18.3,6.4 -19.1,16.2c-0.8,9.7 6.4,18.3 16.2,19.1c9.7,0.8 18.3,-6.4 19.1,-16.2c0.8,-9.7 -6.4,-18.3 -16.2,-19.1zm-1.8,22.3c-2.6,-0.2 -4.5,-2.4 -4.3,-5c0.2,-2.6 2.5,-4.5 5,-4.2c2.6,0.2 4.5,2.4 4.3,5c-0.2,2.5 -2.4,4.4 -5,4.2z" fill="#ECF0F1"/>
    <path id="svg_15" d="m229,185.6c-8.2,-0.7 -15.3,5.4 -16,13.6c-0.7,8.2 5.4,15.3 13.6,16c8.2,0.7 15.3,-5.4 16,-13.6c0.6,-8.1 -5.4,-15.3 -13.6,-16zm-1.6,19.5c-2.6,-0.2 -4.5,-2.4 -4.3,-5c0.2,-2.6 2.5,-4.5 5,-4.2c2.6,0.2 4.5,2.4 4.3,5c-0.2,2.5 -2.4,4.4 -5,4.2z" fill="#F64200"/>
    <path id="svg_16" d="m275.9,146.9l-4.5,1.2l-3.3,-3.3l1.2,-4.5l0.1,0c-1.5,-1 -3.2,-1.8 -4.8,-2.4l0,0.1l-2.9,3.6l-4.7,-0.6l-1.7,-4.3l0,-0.1c-1.8,0.1 -3.6,0.4 -5.3,0.9l0.1,0l-0.2,4.6l-4.1,2.1l-3.9,-2.5l0,-0.1c-0.7,0.6 -1.4,1.2 -2.1,1.9c-0.6,0.6 -1.2,1.3 -1.7,2l0.1,0l2.6,3.9l-2.1,4.2l-4.6,0.3l0,-0.1c-0.5,1.8 -0.7,3.6 -0.8,5.4l0.1,-0.1l4.4,1.6l0.8,4.6l-3.6,3l-0.1,0c0.6,1.7 1.5,3.3 2.5,4.8l0,-0.1l4.5,-1.3l3.3,3.2l-1.2,4.5l-0.1,0c1.5,1 3.2,1.8 4.8,2.4l0,-0.1l2.9,-3.6l4.6,0.7l1.7,4.3l-0.1,0.1c1.8,-0.1 3.6,-0.4 5.3,-0.9l-0.1,0l0.2,-4.6l4.1,-2.2l3.9,2.5l0,0.1c0.7,-0.6 1.4,-1.2 2,-1.9c0.6,-0.6 1.2,-1.3 1.7,-2l-0.1,0l-2.6,-3.9l2.1,-4.2l4.6,-0.3l0,0.1c0.5,-1.7 0.7,-3.5 0.8,-5.3l-0.1,0.1l-4.4,-1.6l-0.8,-4.6l3.6,-3l0.1,0c-0.4,-1.6 -1.2,-3.2 -2.2,-4.6l0,0zm-15.6,13.3c-0.2,2.1 -2,3.6 -4,3.4c-2.1,-0.2 -3.6,-2 -3.4,-4c0.2,-2.1 2,-3.6 4,-3.4c2,0.2 3.5,2 3.4,4z" opacity="0.2"/>
    <path id="svg_17" d="m275.2,173.5l0,0l-2.7,-3.9l2.1,-4.2l4.6,-0.3l0,0.1c0.5,-1.8 0.7,-3.5 0.8,-5.3l0,0.1l-4.4,-1.6l-0.8,-4.6l3.6,-3l0.1,0c-0.6,-1.6 -1.4,-3.2 -2.4,-4.6l0,0.1l-4.5,1.2l-3.3,-3.3l1.2,-4.5l0.1,0c-1.5,-1 -3.2,-1.8 -4.8,-2.4l0,0.1l-2.9,3.6l-4.6,-0.7l-1.7,-4.3l0,-0.1c-1.8,0.1 -3.6,0.4 -5.3,0.9l0.1,0l-0.2,4.6l-4.1,2.1l-3.9,-2.5l0,-0.1c-0.7,0.6 -1.4,1.2 -2.1,1.9c-0.6,0.6 -1.2,1.3 -1.7,2l0.1,0l2.6,3.9l-2.1,4.2l-4.6,0.3l0,-0.1c-0.5,1.8 -0.7,3.6 -0.8,5.4l0.1,-0.1l4.3,1.6l0.8,4.6l-3.6,3l-0.1,0c0.6,1.7 1.5,3.3 2.5,4.8l0,-0.1l4.5,-1.3l3.3,3.3l-1.2,4.5l-0.1,0c1.5,1 3.2,1.8 4.8,2.4l0,-0.1l2.9,-3.6l4.6,0.7l1.7,4.3l-0.1,0.1c1.8,-0.1 3.6,-0.4 5.3,-0.9l-0.1,0l0.2,-4.6l4.1,-2.2l3.9,2.5l0,0.1c0.7,-0.6 1.4,-1.2 2,-1.9c0.7,-0.7 1.3,-1.4 1.8,-2.1zm-28.1,-4.4c-5.5,-5.3 -5.6,-14.1 -0.3,-19.5c5.3,-5.5 14.1,-5.6 19.5,-0.3c5.5,5.3 5.6,14.1 0.3,19.5c-5.3,5.5 -14,5.7 -19.5,0.3z" fill="#FF7B49"/>
    <path id="svg_18" d="m257.9,145c-7.8,-0.6 -14.7,5.2 -15.4,13c-0.7,7.8 5.2,14.7 13,15.4c7.8,0.7 14.7,-5.2 15.4,-13c0.7,-7.8 -5.2,-14.7 -13,-15.4zm-1.5,18c-2.1,-0.2 -3.6,-2 -3.4,-4c0.2,-2.1 2,-3.6 4,-3.4c2.1,0.2 3.6,2 3.4,4c-0.1,2 -1.9,3.5 -4,3.4z" fill="#ECF0F1"/>
    <path id="svg_19" d="m257.7,147.3c-6.6,-0.5 -12.4,4.4 -12.9,11c-0.5,6.6 4.4,12.4 10.9,12.9c6.6,0.5 12.4,-4.4 12.9,-10.9c0.6,-6.7 -4.3,-12.5 -10.9,-13zm-1.3,15.7c-2.1,-0.2 -3.6,-2 -3.4,-4c0.2,-2.1 2,-3.6 4,-3.4c2.1,0.2 3.6,2 3.4,4c-0.1,2 -1.9,3.5 -4,3.4z" fill="#FF7B49"/>
    <path id="svg_20" d="m54.2,130.8c0,13.6 -11,24.7 -24.7,24.7c-13.6,0 -24.7,-11 -24.7,-24.7c0,-13.6 11,-24.7 24.7,-24.7c13.7,0 24.7,11.1 24.7,24.7z" fill="#FF7B49"/>
    <path id="svg_21" d="m177.4,231.4c0,12.9 -10.4,23.3 -23.3,23.3c-12.9,0 -23.3,-10.4 -23.3,-23.3c0,-12.9 10.4,-23.3 23.3,-23.3c12.9,0 23.3,10.4 23.3,23.3z" fill="#414042"/>
    <path id="svg_22" d="m163,229.9c-0.1,0 -0.3,0 -0.3,-0.1c1,-1.5 -1.9,-4.8 -6.2,-3.9c-0.1,0 -0.7,0.2 -0.8,0.3c0,0 -0.2,-0.1 -0.4,-0.3c-2.1,-1.8 -7.1,-2.3 -7.2,3.6c0,0 -0.2,0 -0.7,0c-7.1,-0.3 -7.4,8.6 -2,8.5c0,0 12.4,0 16.6,0c4.4,0.1 7.3,-6.3 1,-8.1zm-10.8,-2.2c-1,0.1 -1.1,0.8 -1,1c0,0.5 -0.3,0.9 -0.8,1c0,0 0,0 -0.1,0c-0.5,0 -0.9,-0.4 -0.9,-0.8c-0.1,-1.1 0.6,-2.8 2.7,-3c0.5,0 0.9,0.3 1,0.8c-0.1,0.5 -0.4,1 -0.9,1z" fill="#F1F2F2"/>
    <path id="svg_23" d="m49.5,244.4c0.1,0.6 0.5,1 1.1,1l22,0c0.6,0 1,-0.4 1.1,-1l-24.2,0z" fill="#CCCCCC"/>
    <path id="svg_24" d="m30.1,244.2l62.9,0l1.6,0l0,-39.9c0,-0.9 -0.7,-1.6 -1.6,-1.6l-62.9,0c-0.9,0 -1.6,0.7 -1.6,1.6l0,39.9l1.6,0z" fill="#474F59"/>
    <path id="svg_25" d="m94.6,244.3l-66.1,0c-0.1,0 -0.1,-0.1 -0.1,-0.1l0,-39.9c0,-1 0.8,-1.8 1.8,-1.8l62.8,0c1,0 1.8,0.8 1.8,1.8l0,39.9c0,0.1 -0.1,0.1 -0.2,0.1zm-66,-0.2l65.8,0l0,-39.8c0,-0.8 -0.7,-1.5 -1.5,-1.5l-62.8,0c-0.8,0 -1.5,0.7 -1.5,1.5l0,39.8z" fill="#B3B3B3"/>
    <rect id="svg_26" height="33.6" width="57.9" fill="#30363D" y="206.6" x="32.6"/>
    <path id="svg_27" d="m100.7,244.4l-27.1,0c-0.1,0.6 -0.5,1 -1.1,1l-22,0c-0.6,0 -1,-0.4 -1.1,-1l-27,0c0,0.1 0,0.3 0,0.4l0,1.2c0,2 1.6,2.1 3.6,2.1l71.2,0c2,0 3.6,-0.1 3.6,-2.1l0,-1.2c0,-0.2 -0.1,-0.3 -0.1,-0.4z" fill="#E6E6E6"/>
    <path id="svg_28" d="m97.2,248.2l-71.3,0c-1.7,0 -3.7,0 -3.7,-2.2l0,-1.2c0,-0.1 0,-0.2 0,-0.3c0,-0.1 0,-0.1 0,-0.2c0,-0.1 0.1,-0.1 0.1,-0.1l27.1,0c0.1,0 0.1,0.1 0.1,0.1c0.1,0.5 0.5,0.9 0.9,0.9l22,0c0.5,0 0.9,-0.4 0.9,-0.9c0,-0.1 0.1,-0.1 0.1,-0.1l27.1,0c0.1,0 0.1,0.1 0.1,0.1c0,0 0,0.1 0,0.1c0,0.1 0,0.2 0,0.3l0,1.2c0.3,2.3 -1.8,2.3 -3.4,2.3zm-74.7,-3.7c0,0 0,0.1 0,0c0,0.1 0,0.2 0,0.3l0,1.2c0,1.8 1.4,1.9 3.4,1.9l71.2,0c2,0 3.4,-0.1 3.4,-1.9l0,-1.2c0,-0.1 0,-0.2 0,-0.2c0,0 0,0 0,0l-26.8,0c-0.1,0.6 -0.6,1 -1.2,1l-22,0c-0.6,0 -1.1,-0.4 -1.2,-1l-26.8,0l0,-0.1z" fill="#B3B3B3"/>
    <rect id="svg_29" height="0.7" width="14.1" fill="#72BCC5" y="212.8" x="35.6"/>
    <rect id="svg_30" height="0.7" width="3.2" fill="#D46F41" y="212.8" x="51"/>
    <rect id="svg_31" height="0.7" width="9.4" fill="#D46F41" y="210.1" x="35.6"/>
    <rect id="svg_32" height="0.7" width="29.7" fill="#DCE4E7" y="215.5" x="44"/>
    <rect id="svg_33" height="0.7" width="6.9" fill="#EC8558" y="215.5" x="35.6"/>
    <rect id="svg_34" height="0.7" width="24" fill="#DCE4E7" y="218.3" x="38.6"/>
    <rect id="svg_35" height="0.7" width="4.1" fill="#D46F41" y="218.3" x="63.9"/>
    <rect id="svg_36" height="0.7" width="4.6" fill="#EC8558" y="221" x="38.6"/>
    <rect id="svg_37" height="0.7" width="4.6" fill="#EC8558" y="223.7" x="38.6"/>
    <rect id="svg_38" height="0.7" width="25" fill="#72BCC5" y="221" x="44.5"/>
    <rect id="svg_39" height="0.7" width="13.1" fill="#72BCC5" y="223.7" x="44.5"/>
    <rect id="svg_40" height="0.7" width="13.1" fill="#DCE4E7" y="223.7" x="58.6"/>
    <rect id="svg_41" height="0.7" width="17.4" fill="#72BCC5" y="226.4" x="44.4"/>
    <rect id="svg_42" height="0.7" width="7.7" fill="#EC8558" y="226.4" x="35.6"/>
    <rect id="svg_43" height="0.7" width="2.4" fill="#D46F41" y="226.4" x="63.4"/>
    <rect id="svg_44" height="0.7" width="4.6" fill="#EC8558" y="229.3" x="38.6"/>
    <rect id="svg_45" height="0.7" width="4.6" fill="#EC8558" y="232" x="38.6"/>
    <rect id="svg_46" height="0.7" width="25" fill="#72BCC5" y="229.3" x="44.5"/>
    <rect id="svg_47" height="0.7" width="13.1" fill="#72BCC5" y="232" x="44.5"/>
    <rect id="svg_48" height="0.7" width="13.1" fill="#DCE4E7" y="232" x="58.6"/>
    <rect id="svg_49" height="0.7" width="17.4" fill="#72BCC5" y="234.8" x="44.4"/>
    <rect id="svg_50" height="0.7" width="7.7" fill="#EC8558" y="234.8" x="35.6"/>
    <rect id="svg_51" height="0.7" width="2.4" fill="#D46F41" y="234.8" x="63.4"/>
    <polygon id="svg_52" points="203.2,40.3 203.2,48.1 203.2,105.3 275.1,105.1 289.9,89.8 289.9,48.1 289.9,40.3   " fill="#939598"/>
    <polygon id="svg_53" points="290.8,88.7 290.8,39.2 204.1,39.2 204.1,104.2 276,104   " fill="#414042"/>
    <polygon id="svg_54" points="276,88.3 276,104 290.8,88.7   " fill="#BCBEC0"/>
    <polygon id="svg_55" points="276.9,89.4 276,104 290.8,88.7   " fill="#231F20"/>
    <rect id="svg_56" height="7.7" width="86.7" fill="#EC8558" y="39.2" x="204.1"/>
    <path id="svg_57" d="m286.3,43.1c0,0.9 -0.7,1.6 -1.6,1.6c-0.9,0 -1.6,-0.7 -1.6,-1.6c0,-0.9 0.7,-1.6 1.6,-1.6c0.9,-0.1 1.6,0.7 1.6,1.6z" fill="#FFFBF5"/>
    <path id="svg_58" d="m279.3,43.1c0,0.9 -0.7,1.6 -1.6,1.6c-0.9,0 -1.6,-0.7 -1.6,-1.6c0,-0.9 0.7,-1.6 1.6,-1.6c0.9,-0.1 1.6,0.7 1.6,1.6z" fill="#FFFBF5"/>
    <path id="svg_59" d="m272.3,43.1c0,0.9 -0.7,1.6 -1.6,1.6c-0.9,0 -1.6,-0.7 -1.6,-1.6c0,-0.9 0.7,-1.6 1.6,-1.6c0.9,-0.1 1.6,0.7 1.6,1.6z" fill="#FFFBF5"/>
    <rect id="svg_60" height="4.1" width="36.3" fill="#ABB7B7" y="50.7" x="211.5"/>
    <rect id="svg_61" height="1.3" width="54.7" fill="#EC8558" y="69.5" x="207.1"/>
    <rect id="svg_62" height="1.3" width="4" fill="#72BCC5" y="69.5" x="262.5"/>
    <rect id="svg_63" height="1.3" width="16" fill="#EC8558" y="72" x="207"/>
    <rect id="svg_64" height="1.3" width="19.3" fill="#E84C3D" y="74.4" x="207"/>
    <rect id="svg_65" height="1.3" width="9.7" fill="#E84C3D" y="74.4" x="226.8"/>
    <rect id="svg_66" height="1.3" width="5.2" fill="#EC8558" y="72" x="223.7"/>
    <rect id="svg_67" height="1.3" width="15.1" fill="#EC8558" y="72" x="229.6"/>
    <rect id="svg_68" height="1.3" width="1.8" fill="#E84C3D" y="72" x="245.4"/>
    <rect id="svg_69" height="1.3" width="33.3" fill="#72BCC5" y="72" x="247.6"/>
    <rect id="svg_70" height="1.3" width="54.7" fill="#72BCC5" y="76.9" x="207.1"/>
    <rect id="svg_71" height="1.3" width="4" fill="#72BCC5" y="76.9" x="262.5"/>
    <rect id="svg_72" height="1.3" width="16" fill="#EC8558" y="79.4" x="207"/>
    <rect id="svg_73" height="1.3" width="19.3" fill="#72BCC5" y="81.8" x="207"/>
    <rect id="svg_74" height="1.3" width="9.7" fill="#72BCC5" y="81.8" x="226.8"/>
    <rect id="svg_75" height="1.3" width="5.2" fill="#EC8558" y="79.4" x="223.7"/>
    <rect id="svg_76" height="1.3" width="15.1" fill="#EC8558" y="79.4" x="229.6"/>
    <rect id="svg_77" height="1.3" width="1.8" fill="#EC8558" y="79.4" x="245.4"/>
    <rect id="svg_78" height="1.3" width="33.3" fill="#E84C3D" y="79.4" x="247.6"/>
    <rect id="svg_79" height="1.3" width="54.7" fill="#EC8558" y="84.1" x="207.1"/>
    <rect id="svg_80" height="1.3" width="4" fill="#EC8558" y="84.1" x="262.5"/>
    <rect id="svg_81" height="1.3" width="16" fill="#E84C3D" y="86.6" x="207"/>
    <rect id="svg_82" height="1.3" width="19.3" fill="#EC8558" y="89" x="207"/>
    <rect id="svg_83" height="1.3" width="9.7" fill="#EC8558" y="89" x="226.8"/>
    <rect id="svg_84" height="1.3" width="5.2" fill="#72BCC5" y="86.6" x="223.7"/>
    <rect id="svg_85" height="1.3" width="15.1" fill="#E84C3D" y="86.6" x="229.6"/>
    <rect id="svg_86" height="1.3" width="1.8" fill="#E84C3D" y="86.6" x="245.4"/>
    <rect id="svg_87" height="1.3" width="33.3" fill="#72BCC5" y="86.6" x="247.6"/>
    <path id="svg_88" d="m209.4,62.6c0,-0.1 0.1,-0.3 0.2,-0.3l2.9,-1.9c0,0 0.1,0 0.1,0c0.1,0 0.3,0.1 0.3,0.3c0,0.1 0,0.1 -0.1,0.2l-2.8,1.8l2.7,1.9c0.1,0 0.1,0.1 0.1,0.2c0,0.1 -0.1,0.2 -0.3,0.2c-0.1,0 -0.1,0 -0.1,-0.1c0,0 -2.6,-1.7 -2.9,-2c-0.1,-0.1 -0.1,-0.2 -0.1,-0.3z" fill="#FFFFFF"/>
    <path id="svg_89" d="m214.3,65.4c0,0.1 -0.1,0.2 -0.2,0.2c0,0 -0.1,0 -0.1,0c-0.1,0 -0.2,-0.1 -0.2,-0.2c0,0 0,-0.1 0,-0.1l2.7,-6.1c0.1,-0.1 0.1,-0.2 0.2,-0.2c0,0 0.1,0 0.1,0c0.1,0 0.2,0.1 0.2,0.2c0,0 0,0.1 0,0.1l-2.7,6.1z" fill="#FFFFFF"/>
    <path id="svg_90" d="m218,59.3c0,-0.2 0.2,-0.4 0.4,-0.4l2.2,0c1,0 1.8,0.8 1.8,1.8c0,1 -0.8,1.8 -1.8,1.8l-2.1,0l0,3c0,0.2 -0.1,0.3 -0.3,0.3c-0.2,0 -0.3,-0.1 -0.3,-0.3l0,-6.2l0.1,0zm2.6,2.5c0.7,0 1.3,-0.6 1.3,-1.3c0,-0.7 -0.6,-1.2 -1.3,-1.2l-2.1,0l0,2.5l2.1,0z" fill="#FFFFFF"/>
    <path id="svg_91" d="m223.4,61.7c0,-0.1 0.1,-0.3 0.3,-0.3c0.1,0 0.3,0.1 0.3,0.3l0,0.3c0,0.2 -0.1,0.3 -0.3,0.3c-0.2,0 -0.3,-0.1 -0.3,-0.3l0,-0.3zm0,3.2c0,-0.2 0.1,-0.3 0.3,-0.3c0.1,0 0.3,0.1 0.3,0.3l0,0.3c0,0.2 -0.1,0.3 -0.3,0.3c-0.2,0 -0.3,-0.1 -0.3,-0.3l0,-0.3z" fill="#FFFFFF"/>
    <path id="svg_92" d="m226.6,59.2c0.1,0 0.1,-0.1 0.2,-0.1c0.2,0 0.4,0.2 0.4,0.4l0,5.7c0,0.2 -0.1,0.3 -0.3,0.3c-0.1,0 -0.3,-0.1 -0.3,-0.3l0,-5.5l-1.4,1c0,0 -0.1,0 -0.2,0c-0.2,0 -0.3,-0.1 -0.3,-0.3c0,-0.1 0.1,-0.2 0.1,-0.2l1.8,-1z" fill="#FFFFFF"/>
    <path id="svg_93" d="m228.6,64.9c0,0 -0.1,0.1 -0.1,0.1c-0.2,0 -0.3,-0.1 -0.3,-0.2c0,-0.1 0,-0.2 0.1,-0.2l2.8,-1.9c-0.5,-0.3 -2.8,-1.8 -2.8,-1.8c-0.1,0 -0.1,-0.1 -0.1,-0.2c0,-0.2 0.1,-0.3 0.3,-0.3c0,0 0.1,0 0.1,0l2.9,1.9c0.1,0.1 0.2,0.2 0.2,0.3c0,0.1 -0.1,0.3 -0.2,0.3c-0.3,0.3 -2.9,2 -2.9,2z" fill="#FFFFFF"/>
    <path id="svg_94" d="m71,35.8c-2.9,-6.7 -7.8,-11.6 -14.6,-14.5c-3.4,-1.4 -6.9,-2.2 -10.6,-2.2c-3.7,0 -7.2,0.7 -10.6,2.2c-6.7,2.9 -11.7,7.8 -14.6,14.5c-1.4,3.4 -2.2,6.9 -2.2,10.6c0,3.7 0.7,7.3 2.2,10.7c2.9,6.7 7.9,11.7 14.6,14.6c3.4,1.5 6.9,2.2 10.6,2.2c3.7,0 7.2,-0.7 10.6,-2.2c6.8,-2.9 11.7,-7.8 14.6,-14.6c1.5,-3.4 2.2,-6.9 2.2,-10.7c0,-3.7 -0.7,-7.2 -2.2,-10.6zm-34.3,-11.6c-2.4,3 -4.1,6.8 -5.2,11.4l-7.2,0c2.6,-5.1 7.1,-9.2 12.4,-11.4zm-15,22.2c0,-2.6 0.4,-5.1 1.2,-7.5l7.8,0c-0.4,2.5 -0.6,5.1 -0.6,7.5c0,2.5 0.2,4.9 0.6,7.5l-7.9,0c-0.7,-2.4 -1.1,-4.9 -1.1,-7.5zm2.6,10.8l7.2,0c1.1,4.7 2.8,8.6 5.2,11.5c-5.4,-2.2 -9.8,-6.3 -12.4,-11.5zm19.8,13c-1.9,-0.6 -3.8,-2 -5.4,-4.3c-1.6,-2.3 -2.9,-5.2 -3.8,-8.7l9.2,0l0,13zm0,-16.3l-9.9,0c-0.4,-2.7 -0.6,-5.2 -0.6,-7.5c0,-2.5 0.2,-5 0.7,-7.5l9.9,0l-0.1,15l0,0zm0,-18.3l-9.2,0c0.9,-3.4 2.2,-6.3 3.8,-8.6c1.7,-2.3 3.4,-3.8 5.4,-4.3l0,12.9zm23.2,0l-7.2,0c-1.1,-4.6 -2.8,-8.4 -5.2,-11.4c5.3,2.2 9.8,6.3 12.4,11.4zm-19.8,-12.9c1.9,0.5 3.7,2 5.4,4.3c1.6,2.3 2.9,5.2 3.8,8.6l-9.2,0l0,-12.9zm0,16.2l9.9,0c0.4,2.5 0.7,5 0.7,7.5c0,2.3 -0.2,4.8 -0.6,7.5l-9.9,0l0,-15l-0.1,0zm0,31.3l0,-13l9.2,0c-0.9,3.4 -2.2,6.3 -3.8,8.7c-1.6,2.4 -3.4,3.8 -5.4,4.3zm7.4,-1.5c2.4,-3 4.1,-6.8 5.2,-11.5l7.2,0c-2.6,5.2 -7,9.3 -12.4,11.5zm13.8,-14.8l-7.9,0c0.4,-2.5 0.6,-5 0.6,-7.5c0,-2.5 -0.2,-5 -0.6,-7.5l7.8,0c0.8,2.4 1.2,4.9 1.2,7.5c0.1,2.6 -0.3,5.1 -1.1,7.5z" fill="#074447"/>
    <path id="svg_95" d="m16.3,118.8l0,24l24.2,0l0,-24l-24.2,0zm22.2,2c0,1.7 0,18.3 0,20c-1.7,0 -18.5,0 -20.2,0c0,-1.7 0,-18.3 0,-20c1.7,0 18.4,0 20.2,0z" fill="#FFFFFF"/>
    <path id="svg_96" d="m25.8,134.2l-6.4,-2.8l0,-1.5l6.4,-2.8l0,1.8l-4.4,1.7l4.4,1.8l0,1.8z" fill="#FFFFFF"/>
    <path id="svg_97" d="m26.3,135.5l2.3,-9.6l1.4,0l-2.3,9.6l-1.4,0z" fill="#FFFFFF"/>
    <path id="svg_98" d="m30.6,134.2l0,-1.8l4.4,-1.8l-4.4,-1.7l0,-1.8l6.4,2.8l0,1.5c-0.1,0.1 -6.4,2.8 -6.4,2.8z" fill="#FFFFFF"/>
    <path id="svg_99" d="m145.6,15.4l8.4,0l-10,-11.7l0,10c-0.1,1 0.7,1.7 1.6,1.7z" fill="#0D8085"/>
    <path id="svg_100" d="m133.9,37.1l0,-11.7c0,-2.8 2.2,-5 5,-5l15,0l0,-3.4l-8.4,0c-1.8,0 -3.3,-1.5 -3.3,-3.3l0,-10l-16.7,0c-1.8,0 -3.3,1.5 -3.3,3.3l0,38.4c0,1.8 1.5,3.3 3.3,3.3l25.1,0c1.8,0 3.3,-1.5 3.3,-3.3l0,-3.3l-15,0c-2.9,0 -5,-2.2 -5,-5z" fill="#13BBC1"/>
    <path id="svg_101" d="m167.3,22l-28.4,0c-1.8,0 -3.3,1.5 -3.3,3.3l0,11.7c0,1.8 1.5,3.3 3.3,3.3l28.4,0c1.8,0 3.3,-1.5 3.3,-3.3l0,-11.6c0,-1.9 -1.5,-3.4 -3.3,-3.4z" fill="#FF7B49"/>
    <path id="svg_102" d="m143.9,25.4l-5,0l0,3.3l0,8.4l1.7,0l0,-5l3.3,0c1.8,0 3.3,-1.5 3.3,-3.3c0,-1.9 -1.5,-3.4 -3.3,-3.4zm0,5l-3.3,0l0,-3.4l3.3,0c1,0 1.7,0.7 1.7,1.7c0,1 -0.7,1.7 -1.7,1.7z" fill="#FFFFFF"/>
    <path id="svg_103" d="m163.9,25.4l-5,0l0,3.3l0,8.4l1.7,0l0,-5l3.3,0c1.8,0 3.3,-1.5 3.3,-3.3c0.1,-1.9 -1.4,-3.4 -3.3,-3.4zm0,5l-3.3,0l0,-3.4l3.3,0c1,0 1.7,0.7 1.7,1.7c0,1 -0.7,1.7 -1.7,1.7z" fill="#FFFFFF"/>
    <polygon id="svg_104" points="157.2,37.1 155.6,37.1 155.6,32.1 150.6,32.1 150.6,37.1 148.9,37.1 148.9,25.4 150.6,25.4     150.6,30.4 155.6,30.4 155.6,25.4 157.2,25.4   " fill="#FFFFFF"/>
   </g>
  </g>
  <g id="Nerd_Male_Profile_Avatar"/>
  <g id="Nerd_Man_With_Curly_Hair_And_Circular_Eyeglasses_Avatar"/>
  <rect id="svg_105" height="15.121929" width="29.756054" y="24.047707" x="137.900001" stroke-width="0" stroke="#000" fill="#ff7b49"/>
  <text xml:space="preserve" text-anchor="start" font-family="Helvetica, Arial, sans-serif" font-size="12" id="svg_107" y="34.779399" x="145.217064" stroke-width="0" stroke="#000" fill="#ffffff">JS</text>
  <ellipse rx="0.243902" id="svg_108" cy="165.510915" cx="260.094944" stroke-width="0" stroke="#000" fill="#ffffff"/>
 </g>
</svg>